<mxfile host="app.diagrams.net" agent="Mozilla/5.0 (X11; Linux x86_64; rv:136.0) Gecko/20100101 Firefox/136.0" version="26.1.3">
  <diagram name="Page-1" id="yjBLFyxygMRbs6BB0mCO">
    <mxGraphModel dx="824" dy="1314" grid="1" gridSize="10" guides="1" tooltips="1" connect="1" arrows="1" fold="1" page="1" pageScale="1" pageWidth="850" pageHeight="1100" math="0" shadow="0">
      <root>
        <mxCell id="0" />
        <mxCell id="1" parent="0" />
        <mxCell id="bXbe4CzogIyvh0eKeRUK-1" value="&lt;div&gt;Spam Models:&lt;/div&gt;&lt;div&gt;message_model&lt;br&gt;message_vectoriser&lt;/div&gt;" style="strokeWidth=2;html=1;shape=mxgraph.flowchart.database;whiteSpace=wrap;" vertex="1" parent="1">
          <mxGeometry x="680" y="740" width="120" height="130" as="geometry" />
        </mxCell>
        <mxCell id="bXbe4CzogIyvh0eKeRUK-2" value="Telegram User" style="shape=parallelogram;html=1;strokeWidth=2;perimeter=parallelogramPerimeter;whiteSpace=wrap;rounded=1;arcSize=12;size=0.23;" vertex="1" parent="1">
          <mxGeometry x="90" y="110" width="140" height="60" as="geometry" />
        </mxCell>
        <mxCell id="bXbe4CzogIyvh0eKeRUK-19" style="rounded=0;orthogonalLoop=1;jettySize=auto;html=1;entryX=0.095;entryY=1.031;entryDx=0;entryDy=0;entryPerimeter=0;" edge="1" parent="1" source="bXbe4CzogIyvh0eKeRUK-3" target="bXbe4CzogIyvh0eKeRUK-2">
          <mxGeometry relative="1" as="geometry" />
        </mxCell>
        <mxCell id="bXbe4CzogIyvh0eKeRUK-3" value="Telegram API" style="shape=parallelogram;html=1;strokeWidth=2;perimeter=parallelogramPerimeter;whiteSpace=wrap;rounded=1;arcSize=12;size=0.23;" vertex="1" parent="1">
          <mxGeometry x="60" y="220" width="140" height="60" as="geometry" />
        </mxCell>
        <mxCell id="bXbe4CzogIyvh0eKeRUK-4" value="&lt;div&gt;Fake News Model:&lt;/div&gt;&lt;div&gt;nb_model&lt;br&gt;nb_title_model&lt;br&gt;nb_text_model&lt;/div&gt;&lt;div&gt;tfidf_vectoriser&lt;/div&gt;&lt;div&gt;tfidf_title_vectoriser&lt;/div&gt;&lt;div&gt;tfidf_text_vectoriser&lt;/div&gt;" style="strokeWidth=2;html=1;shape=mxgraph.flowchart.database;whiteSpace=wrap;" vertex="1" parent="1">
          <mxGeometry x="530" y="870" width="120" height="160" as="geometry" />
        </mxCell>
        <mxCell id="bXbe4CzogIyvh0eKeRUK-48" style="rounded=0;orthogonalLoop=1;jettySize=auto;html=1;" edge="1" parent="1" source="bXbe4CzogIyvh0eKeRUK-5" target="bXbe4CzogIyvh0eKeRUK-9">
          <mxGeometry relative="1" as="geometry" />
        </mxCell>
        <mxCell id="bXbe4CzogIyvh0eKeRUK-5" value="Fake News Detector" style="strokeWidth=2;html=1;shape=mxgraph.flowchart.database;whiteSpace=wrap;" vertex="1" parent="1">
          <mxGeometry x="340" y="740" width="90" height="60" as="geometry" />
        </mxCell>
        <mxCell id="bXbe4CzogIyvh0eKeRUK-6" value="Command Handler" style="strokeWidth=2;html=1;shape=mxgraph.flowchart.database;whiteSpace=wrap;" vertex="1" parent="1">
          <mxGeometry x="650" y="520" width="90" height="60" as="geometry" />
        </mxCell>
        <mxCell id="bXbe4CzogIyvh0eKeRUK-30" style="rounded=0;orthogonalLoop=1;jettySize=auto;html=1;jumpStyle=arc;" edge="1" parent="1" source="bXbe4CzogIyvh0eKeRUK-7" target="bXbe4CzogIyvh0eKeRUK-10">
          <mxGeometry relative="1" as="geometry" />
        </mxCell>
        <mxCell id="bXbe4CzogIyvh0eKeRUK-45" style="rounded=0;orthogonalLoop=1;jettySize=auto;html=1;jumpStyle=arc;" edge="1" parent="1" source="bXbe4CzogIyvh0eKeRUK-7" target="bXbe4CzogIyvh0eKeRUK-1">
          <mxGeometry relative="1" as="geometry" />
        </mxCell>
        <mxCell id="bXbe4CzogIyvh0eKeRUK-7" value="Spam&lt;br&gt;Detector" style="strokeWidth=2;html=1;shape=mxgraph.flowchart.database;whiteSpace=wrap;" vertex="1" parent="1">
          <mxGeometry x="510" y="550" width="70" height="60" as="geometry" />
        </mxCell>
        <mxCell id="bXbe4CzogIyvh0eKeRUK-29" style="rounded=0;orthogonalLoop=1;jettySize=auto;html=1;" edge="1" parent="1" source="bXbe4CzogIyvh0eKeRUK-8" target="bXbe4CzogIyvh0eKeRUK-5">
          <mxGeometry relative="1" as="geometry" />
        </mxCell>
        <mxCell id="bXbe4CzogIyvh0eKeRUK-8" value="News Component Extractor" style="strokeWidth=2;html=1;shape=mxgraph.flowchart.database;whiteSpace=wrap;" vertex="1" parent="1">
          <mxGeometry x="305" y="550" width="85" height="60" as="geometry" />
        </mxCell>
        <mxCell id="bXbe4CzogIyvh0eKeRUK-9" value="Response Formatter" style="strokeWidth=2;html=1;shape=mxgraph.flowchart.database;whiteSpace=wrap;" vertex="1" parent="1">
          <mxGeometry x="300" y="1010" width="90" height="60" as="geometry" />
        </mxCell>
        <mxCell id="bXbe4CzogIyvh0eKeRUK-10" value="Error&lt;br&gt;Handler" style="strokeWidth=2;html=1;shape=mxgraph.flowchart.database;whiteSpace=wrap;" vertex="1" parent="1">
          <mxGeometry x="235" y="680" width="60" height="60" as="geometry" />
        </mxCell>
        <mxCell id="bXbe4CzogIyvh0eKeRUK-38" style="rounded=0;orthogonalLoop=1;jettySize=auto;html=1;entryX=0.73;entryY=0.995;entryDx=0;entryDy=0;entryPerimeter=0;exitX=0.762;exitY=0;exitDx=0;exitDy=0;exitPerimeter=0;" edge="1" parent="1" source="bXbe4CzogIyvh0eKeRUK-11" target="bXbe4CzogIyvh0eKeRUK-12">
          <mxGeometry relative="1" as="geometry" />
        </mxCell>
        <mxCell id="bXbe4CzogIyvh0eKeRUK-39" value="Load Model" style="edgeLabel;html=1;align=center;verticalAlign=middle;resizable=0;points=[];" vertex="1" connectable="0" parent="bXbe4CzogIyvh0eKeRUK-38">
          <mxGeometry x="-0.192" relative="1" as="geometry">
            <mxPoint as="offset" />
          </mxGeometry>
        </mxCell>
        <mxCell id="bXbe4CzogIyvh0eKeRUK-11" value="&lt;div&gt;Link Model:&lt;/div&gt;&lt;div&gt;link_model&lt;br&gt;link_vectoriser&lt;/div&gt;" style="strokeWidth=2;html=1;shape=mxgraph.flowchart.database;whiteSpace=wrap;" vertex="1" parent="1">
          <mxGeometry x="65" y="930" width="105" height="60" as="geometry" />
        </mxCell>
        <mxCell id="bXbe4CzogIyvh0eKeRUK-32" style="rounded=0;orthogonalLoop=1;jettySize=auto;html=1;" edge="1" parent="1" source="bXbe4CzogIyvh0eKeRUK-12" target="bXbe4CzogIyvh0eKeRUK-10">
          <mxGeometry relative="1" as="geometry" />
        </mxCell>
        <mxCell id="bXbe4CzogIyvh0eKeRUK-12" value="Malicious Link Detector" style="strokeWidth=2;html=1;shape=mxgraph.flowchart.database;whiteSpace=wrap;" vertex="1" parent="1">
          <mxGeometry x="60" y="720" width="90" height="60" as="geometry" />
        </mxCell>
        <mxCell id="bXbe4CzogIyvh0eKeRUK-34" style="rounded=0;orthogonalLoop=1;jettySize=auto;html=1;entryX=0.222;entryY=0;entryDx=0;entryDy=0;entryPerimeter=0;" edge="1" parent="1" source="bXbe4CzogIyvh0eKeRUK-13" target="bXbe4CzogIyvh0eKeRUK-9">
          <mxGeometry relative="1" as="geometry">
            <mxPoint x="230" y="830" as="targetPoint" />
          </mxGeometry>
        </mxCell>
        <mxCell id="bXbe4CzogIyvh0eKeRUK-55" value="Exception" style="edgeLabel;html=1;align=center;verticalAlign=middle;resizable=0;points=[];" vertex="1" connectable="0" parent="bXbe4CzogIyvh0eKeRUK-34">
          <mxGeometry x="-0.1909" relative="1" as="geometry">
            <mxPoint as="offset" />
          </mxGeometry>
        </mxCell>
        <mxCell id="bXbe4CzogIyvh0eKeRUK-36" style="rounded=0;orthogonalLoop=1;jettySize=auto;html=1;" edge="1" parent="1" source="bXbe4CzogIyvh0eKeRUK-13" target="bXbe4CzogIyvh0eKeRUK-12">
          <mxGeometry relative="1" as="geometry" />
        </mxCell>
        <mxCell id="bXbe4CzogIyvh0eKeRUK-53" value="URLS" style="edgeLabel;html=1;align=center;verticalAlign=middle;resizable=0;points=[];" vertex="1" connectable="0" parent="bXbe4CzogIyvh0eKeRUK-36">
          <mxGeometry x="-0.0413" y="1" relative="1" as="geometry">
            <mxPoint as="offset" />
          </mxGeometry>
        </mxCell>
        <mxCell id="bXbe4CzogIyvh0eKeRUK-13" value="URL Extractor" style="strokeWidth=2;html=1;shape=mxgraph.flowchart.database;whiteSpace=wrap;" vertex="1" parent="1">
          <mxGeometry x="70" y="550" width="80" height="60" as="geometry" />
        </mxCell>
        <mxCell id="bXbe4CzogIyvh0eKeRUK-28" style="rounded=0;orthogonalLoop=1;jettySize=auto;html=1;" edge="1" parent="1" source="bXbe4CzogIyvh0eKeRUK-14" target="bXbe4CzogIyvh0eKeRUK-13">
          <mxGeometry relative="1" as="geometry" />
        </mxCell>
        <mxCell id="bXbe4CzogIyvh0eKeRUK-14" value="Text Preprocessor" style="strokeWidth=2;html=1;shape=mxgraph.flowchart.database;whiteSpace=wrap;" vertex="1" parent="1">
          <mxGeometry x="210" y="440" width="110" height="60" as="geometry" />
        </mxCell>
        <mxCell id="bXbe4CzogIyvh0eKeRUK-49" style="rounded=0;orthogonalLoop=1;jettySize=auto;html=1;" edge="1" parent="1" source="bXbe4CzogIyvh0eKeRUK-15" target="bXbe4CzogIyvh0eKeRUK-6">
          <mxGeometry relative="1" as="geometry" />
        </mxCell>
        <mxCell id="bXbe4CzogIyvh0eKeRUK-59" value="command message" style="edgeLabel;html=1;align=center;verticalAlign=middle;resizable=0;points=[];" vertex="1" connectable="0" parent="bXbe4CzogIyvh0eKeRUK-49">
          <mxGeometry x="0.3286" relative="1" as="geometry">
            <mxPoint as="offset" />
          </mxGeometry>
        </mxCell>
        <mxCell id="bXbe4CzogIyvh0eKeRUK-15" value="&lt;div&gt;Message&lt;/div&gt;&lt;div&gt;router&lt;/div&gt;" style="strokeWidth=2;html=1;shape=mxgraph.flowchart.database;whiteSpace=wrap;" vertex="1" parent="1">
          <mxGeometry x="460" y="350" width="60" height="60" as="geometry" />
        </mxCell>
        <mxCell id="bXbe4CzogIyvh0eKeRUK-16" value="Enviorment Variables" style="strokeWidth=2;html=1;shape=mxgraph.flowchart.database;whiteSpace=wrap;" vertex="1" parent="1">
          <mxGeometry x="490" y="110" width="90" height="60" as="geometry" />
        </mxCell>
        <mxCell id="bXbe4CzogIyvh0eKeRUK-18" style="rounded=0;orthogonalLoop=1;jettySize=auto;html=1;entryX=0.886;entryY=0.042;entryDx=0;entryDy=0;entryPerimeter=0;" edge="1" parent="1" source="bXbe4CzogIyvh0eKeRUK-2" target="bXbe4CzogIyvh0eKeRUK-3">
          <mxGeometry relative="1" as="geometry" />
        </mxCell>
        <mxCell id="bXbe4CzogIyvh0eKeRUK-20" style="rounded=0;orthogonalLoop=1;jettySize=auto;html=1;entryX=0;entryY=0.5;entryDx=0;entryDy=0;entryPerimeter=0;" edge="1" parent="1" source="bXbe4CzogIyvh0eKeRUK-3" target="bXbe4CzogIyvh0eKeRUK-15">
          <mxGeometry relative="1" as="geometry" />
        </mxCell>
        <mxCell id="bXbe4CzogIyvh0eKeRUK-22" value="&lt;div&gt;forward update&lt;/div&gt;" style="edgeLabel;html=1;align=center;verticalAlign=middle;resizable=0;points=[];" vertex="1" connectable="0" parent="bXbe4CzogIyvh0eKeRUK-20">
          <mxGeometry x="-0.2892" y="-2" relative="1" as="geometry">
            <mxPoint as="offset" />
          </mxGeometry>
        </mxCell>
        <mxCell id="bXbe4CzogIyvh0eKeRUK-21" style="rounded=0;orthogonalLoop=1;jettySize=auto;html=1;entryX=0.688;entryY=0.029;entryDx=0;entryDy=0;entryPerimeter=0;" edge="1" parent="1" source="bXbe4CzogIyvh0eKeRUK-16" target="bXbe4CzogIyvh0eKeRUK-15">
          <mxGeometry relative="1" as="geometry" />
        </mxCell>
        <mxCell id="bXbe4CzogIyvh0eKeRUK-23" value="Load BOT_TOKEN" style="edgeLabel;html=1;align=center;verticalAlign=middle;resizable=0;points=[];" vertex="1" connectable="0" parent="bXbe4CzogIyvh0eKeRUK-21">
          <mxGeometry x="-0.057" y="1" relative="1" as="geometry">
            <mxPoint as="offset" />
          </mxGeometry>
        </mxCell>
        <mxCell id="bXbe4CzogIyvh0eKeRUK-24" style="rounded=0;orthogonalLoop=1;jettySize=auto;html=1;entryX=0.446;entryY=0.032;entryDx=0;entryDy=0;entryPerimeter=0;" edge="1" parent="1" source="bXbe4CzogIyvh0eKeRUK-15" target="bXbe4CzogIyvh0eKeRUK-14">
          <mxGeometry relative="1" as="geometry" />
        </mxCell>
        <mxCell id="bXbe4CzogIyvh0eKeRUK-25" value="Regular Message" style="edgeLabel;html=1;align=center;verticalAlign=middle;resizable=0;points=[];" vertex="1" connectable="0" parent="bXbe4CzogIyvh0eKeRUK-24">
          <mxGeometry x="-0.119" y="-1" relative="1" as="geometry">
            <mxPoint as="offset" />
          </mxGeometry>
        </mxCell>
        <mxCell id="bXbe4CzogIyvh0eKeRUK-26" style="rounded=0;orthogonalLoop=1;jettySize=auto;html=1;entryX=0.5;entryY=0;entryDx=0;entryDy=0;entryPerimeter=0;" edge="1" parent="1" source="bXbe4CzogIyvh0eKeRUK-14" target="bXbe4CzogIyvh0eKeRUK-8">
          <mxGeometry relative="1" as="geometry" />
        </mxCell>
        <mxCell id="bXbe4CzogIyvh0eKeRUK-52" value="Potential News" style="edgeLabel;html=1;align=center;verticalAlign=middle;resizable=0;points=[];" vertex="1" connectable="0" parent="bXbe4CzogIyvh0eKeRUK-26">
          <mxGeometry x="-0.1776" y="1" relative="1" as="geometry">
            <mxPoint as="offset" />
          </mxGeometry>
        </mxCell>
        <mxCell id="bXbe4CzogIyvh0eKeRUK-27" value="Cleaned Text" style="rounded=0;orthogonalLoop=1;jettySize=auto;html=1;entryX=0.5;entryY=0;entryDx=0;entryDy=0;entryPerimeter=0;" edge="1" parent="1" source="bXbe4CzogIyvh0eKeRUK-14" target="bXbe4CzogIyvh0eKeRUK-7">
          <mxGeometry relative="1" as="geometry" />
        </mxCell>
        <mxCell id="bXbe4CzogIyvh0eKeRUK-31" style="rounded=0;orthogonalLoop=1;jettySize=auto;html=1;entryX=0.5;entryY=0;entryDx=0;entryDy=0;entryPerimeter=0;exitX=0.183;exitY=0.942;exitDx=0;exitDy=0;exitPerimeter=0;" edge="1" parent="1" source="bXbe4CzogIyvh0eKeRUK-14" target="bXbe4CzogIyvh0eKeRUK-10">
          <mxGeometry relative="1" as="geometry" />
        </mxCell>
        <mxCell id="bXbe4CzogIyvh0eKeRUK-54" value="Exception" style="edgeLabel;html=1;align=center;verticalAlign=middle;resizable=0;points=[];" vertex="1" connectable="0" parent="bXbe4CzogIyvh0eKeRUK-31">
          <mxGeometry x="-0.1747" y="3" relative="1" as="geometry">
            <mxPoint as="offset" />
          </mxGeometry>
        </mxCell>
        <mxCell id="bXbe4CzogIyvh0eKeRUK-37" style="rounded=0;orthogonalLoop=1;jettySize=auto;html=1;entryX=0.5;entryY=0;entryDx=0;entryDy=0;entryPerimeter=0;exitX=0.097;exitY=0.953;exitDx=0;exitDy=0;exitPerimeter=0;" edge="1" parent="1" source="bXbe4CzogIyvh0eKeRUK-12" target="bXbe4CzogIyvh0eKeRUK-11">
          <mxGeometry relative="1" as="geometry" />
        </mxCell>
        <mxCell id="bXbe4CzogIyvh0eKeRUK-40" value="Vectorise" style="edgeLabel;html=1;align=center;verticalAlign=middle;resizable=0;points=[];" vertex="1" connectable="0" parent="bXbe4CzogIyvh0eKeRUK-37">
          <mxGeometry x="-0.4355" y="1" relative="1" as="geometry">
            <mxPoint as="offset" />
          </mxGeometry>
        </mxCell>
        <mxCell id="bXbe4CzogIyvh0eKeRUK-41" style="rounded=0;orthogonalLoop=1;jettySize=auto;html=1;entryX=0.219;entryY=0.038;entryDx=0;entryDy=0;entryPerimeter=0;exitX=0.451;exitY=1.023;exitDx=0;exitDy=0;exitPerimeter=0;" edge="1" parent="1" source="bXbe4CzogIyvh0eKeRUK-12" target="bXbe4CzogIyvh0eKeRUK-9">
          <mxGeometry relative="1" as="geometry" />
        </mxCell>
        <mxCell id="bXbe4CzogIyvh0eKeRUK-42" value="Result" style="edgeLabel;html=1;align=center;verticalAlign=middle;resizable=0;points=[];" vertex="1" connectable="0" parent="bXbe4CzogIyvh0eKeRUK-41">
          <mxGeometry x="0.5499" y="2" relative="1" as="geometry">
            <mxPoint as="offset" />
          </mxGeometry>
        </mxCell>
        <mxCell id="bXbe4CzogIyvh0eKeRUK-43" style="edgeStyle=orthogonalEdgeStyle;rounded=0;orthogonalLoop=1;jettySize=auto;html=1;entryX=0.356;entryY=-0.011;entryDx=0;entryDy=0;entryPerimeter=0;curved=1;exitX=1;exitY=0.5;exitDx=0;exitDy=0;exitPerimeter=0;" edge="1" parent="1" source="bXbe4CzogIyvh0eKeRUK-5" target="bXbe4CzogIyvh0eKeRUK-4">
          <mxGeometry relative="1" as="geometry" />
        </mxCell>
        <mxCell id="bXbe4CzogIyvh0eKeRUK-57" value="Vectorise" style="edgeLabel;html=1;align=center;verticalAlign=middle;resizable=0;points=[];" vertex="1" connectable="0" parent="bXbe4CzogIyvh0eKeRUK-43">
          <mxGeometry x="0.197" y="-30" relative="1" as="geometry">
            <mxPoint as="offset" />
          </mxGeometry>
        </mxCell>
        <mxCell id="bXbe4CzogIyvh0eKeRUK-44" style="edgeStyle=orthogonalEdgeStyle;rounded=0;orthogonalLoop=1;jettySize=auto;html=1;entryX=0.5;entryY=1;entryDx=0;entryDy=0;entryPerimeter=0;curved=1;exitX=0;exitY=0.5;exitDx=0;exitDy=0;exitPerimeter=0;" edge="1" parent="1" source="bXbe4CzogIyvh0eKeRUK-4" target="bXbe4CzogIyvh0eKeRUK-5">
          <mxGeometry relative="1" as="geometry" />
        </mxCell>
        <mxCell id="bXbe4CzogIyvh0eKeRUK-58" value="Load Model" style="edgeLabel;html=1;align=center;verticalAlign=middle;resizable=0;points=[];" vertex="1" connectable="0" parent="bXbe4CzogIyvh0eKeRUK-44">
          <mxGeometry x="0.4557" y="-9" relative="1" as="geometry">
            <mxPoint as="offset" />
          </mxGeometry>
        </mxCell>
        <mxCell id="bXbe4CzogIyvh0eKeRUK-47" style="rounded=0;orthogonalLoop=1;jettySize=auto;html=1;entryX=0.543;entryY=0.008;entryDx=0;entryDy=0;entryPerimeter=0;jumpStyle=arc;" edge="1" parent="1" source="bXbe4CzogIyvh0eKeRUK-7" target="bXbe4CzogIyvh0eKeRUK-9">
          <mxGeometry relative="1" as="geometry" />
        </mxCell>
        <mxCell id="bXbe4CzogIyvh0eKeRUK-56" value="&lt;div&gt;Result&lt;/div&gt;&lt;div&gt;&lt;br&gt;&lt;/div&gt;" style="edgeLabel;html=1;align=center;verticalAlign=middle;resizable=0;points=[];" vertex="1" connectable="0" parent="bXbe4CzogIyvh0eKeRUK-47">
          <mxGeometry x="0.0258" y="1" relative="1" as="geometry">
            <mxPoint as="offset" />
          </mxGeometry>
        </mxCell>
        <mxCell id="bXbe4CzogIyvh0eKeRUK-50" style="rounded=0;orthogonalLoop=1;jettySize=auto;html=1;entryX=0.586;entryY=-0.05;entryDx=0;entryDy=0;entryPerimeter=0;jumpStyle=arc;" edge="1" parent="1" source="bXbe4CzogIyvh0eKeRUK-6" target="bXbe4CzogIyvh0eKeRUK-9">
          <mxGeometry relative="1" as="geometry" />
        </mxCell>
        <mxCell id="bXbe4CzogIyvh0eKeRUK-51" value="command" style="edgeLabel;html=1;align=center;verticalAlign=middle;resizable=0;points=[];" vertex="1" connectable="0" parent="bXbe4CzogIyvh0eKeRUK-50">
          <mxGeometry x="-0.6325" relative="1" as="geometry">
            <mxPoint as="offset" />
          </mxGeometry>
        </mxCell>
        <mxCell id="bXbe4CzogIyvh0eKeRUK-60" style="rounded=0;orthogonalLoop=1;jettySize=auto;html=1;entryX=0.333;entryY=0;entryDx=0;entryDy=0;entryPerimeter=0;jumpStyle=arc;" edge="1" parent="1" source="bXbe4CzogIyvh0eKeRUK-10" target="bXbe4CzogIyvh0eKeRUK-9">
          <mxGeometry relative="1" as="geometry" />
        </mxCell>
        <mxCell id="bXbe4CzogIyvh0eKeRUK-61" value="Error" style="edgeLabel;html=1;align=center;verticalAlign=middle;resizable=0;points=[];" vertex="1" connectable="0" parent="bXbe4CzogIyvh0eKeRUK-60">
          <mxGeometry x="-0.5598" y="3" relative="1" as="geometry">
            <mxPoint as="offset" />
          </mxGeometry>
        </mxCell>
        <mxCell id="bXbe4CzogIyvh0eKeRUK-62" style="edgeStyle=orthogonalEdgeStyle;rounded=0;orthogonalLoop=1;jettySize=auto;html=1;entryX=0.128;entryY=0.438;entryDx=0;entryDy=0;entryPerimeter=0;" edge="1" parent="1" source="bXbe4CzogIyvh0eKeRUK-9" target="bXbe4CzogIyvh0eKeRUK-3">
          <mxGeometry relative="1" as="geometry">
            <Array as="points">
              <mxPoint x="30" y="1040" />
              <mxPoint x="30" y="246" />
              <mxPoint x="70" y="246" />
            </Array>
          </mxGeometry>
        </mxCell>
        <mxCell id="bXbe4CzogIyvh0eKeRUK-63" value="Formatted&lt;br&gt;Alerts&lt;br&gt;&amp;nbsp;and &lt;br&gt;Responses" style="edgeLabel;html=1;align=center;verticalAlign=middle;resizable=0;points=[];" vertex="1" connectable="0" parent="bXbe4CzogIyvh0eKeRUK-62">
          <mxGeometry x="0.6251" relative="1" as="geometry">
            <mxPoint as="offset" />
          </mxGeometry>
        </mxCell>
      </root>
    </mxGraphModel>
  </diagram>
</mxfile>
